<?xml version="1.0" encoding="utf-8"?>
<!-- Generator: Adobe Illustrator 15.0.0, SVG Export Plug-In . SVG Version: 6.00 Build 0)  -->
<!DOCTYPE svg PUBLIC "-//W3C//DTD SVG 1.1//EN" "http://www.w3.org/Graphics/SVG/1.1/DTD/svg11.dtd">
<svg version="1.1" id="Layer_1" xmlns="http://www.w3.org/2000/svg" xmlns:xlink="http://www.w3.org/1999/xlink" x="0px" y="0px"
	 width="512px" height="273.39px" viewBox="0 0 512 273.39" enable-background="new 0 0 512 273.39" xml:space="preserve">
<g>
	<path fill="#FFFFFF" d="M327.496,132H184.504c-5.792,0-10.504-4.712-10.504-10.504V10.504C174,4.712,178.712,0,184.504,0h142.992
		C333.288,0,338,4.712,338,10.504v110.992C338,127.288,333.288,132,327.496,132z M184.504,4C180.917,4,178,6.918,178,10.504v110.992
		c0,3.586,2.917,6.504,6.504,6.504h142.992c3.586,0,6.504-2.918,6.504-6.504V10.504C334,6.918,331.082,4,327.496,4H184.504z"/>
</g>
<g>
	<path fill="#FFFFFF" d="M327.496,273.39H184.504c-5.792,0-10.504-4.712-10.504-10.504V151.893c0-5.792,4.712-10.504,10.504-10.504
		h142.992c5.792,0,10.504,4.712,10.504,10.504v110.993C338,268.678,333.288,273.39,327.496,273.39z M184.504,145.389
		c-3.586,0-6.504,2.918-6.504,6.504v110.993c0,3.586,2.917,6.504,6.504,6.504h142.992c3.586,0,6.504-2.918,6.504-6.504V151.893
		c0-3.586-2.918-6.504-6.504-6.504H184.504z"/>
</g>
<g>
	<path fill="#FFFFFF" d="M153.496,273.39H10.504C4.712,273.39,0,268.678,0,262.886V151.893c0-5.792,4.712-10.504,10.504-10.504
		h142.992c5.792,0,10.504,4.712,10.504,10.504v110.993C164,268.678,159.288,273.39,153.496,273.39z M10.504,145.389
		c-3.586,0-6.504,2.918-6.504,6.504v110.993c0,3.586,2.917,6.504,6.504,6.504h142.992c3.586,0,6.504-2.918,6.504-6.504V151.893
		c0-3.586-2.917-6.504-6.504-6.504H10.504z"/>
</g>
<g>
	<path fill="#FFFFFF" d="M501.496,273.39H358.504c-5.792,0-10.504-4.712-10.504-10.504V151.893c0-5.792,4.712-10.504,10.504-10.504
		h142.992c5.792,0,10.504,4.712,10.504,10.504v110.993C512,268.678,507.288,273.39,501.496,273.39z M358.504,145.389
		c-3.586,0-6.504,2.918-6.504,6.504v110.993c0,3.586,2.918,6.504,6.504,6.504h142.992c3.586,0,6.504-2.918,6.504-6.504V151.893
		c0-3.586-2.918-6.504-6.504-6.504H358.504z"/>
</g>
<polygon fill="#FFFFFF" points="267.564,68.867 256,33.369 244.435,68.867 254,58.76 254,97.497 258,97.497 258,58.76 "/>
<polygon fill="#FFFFFF" points="258,214.062 258,175.324 254,175.324 254,214.061 244.435,203.955 256,239.453 267.564,203.955 "/>
<polygon fill="#FFFFFF" points="114.063,205.389 75.327,205.389 85.433,195.824 49.935,207.389 85.433,218.954 75.326,209.389 
	114.063,209.389 "/>
<polygon fill="#FFFFFF" points="462.064,207.389 426.566,195.824 436.674,205.39 397.936,205.39 397.936,209.39 436.672,209.39 
	426.566,218.954 "/>
</svg>
